<?xml version="1.0" encoding="utf-8"?>
<svg id="Layer_1" data-name="Layer 1" viewBox="0 0 40 40" xmlns="http://www.w3.org/2000/svg">
  <defs>
    <style>
      .cls-1 {
        fill: url(#linear-gradient);
        stroke-width: 0px;
      }
    </style>
    <linearGradient id="linear-gradient" x1="9.08" y1="277.35" x2="27.26" y2="308.83" gradientTransform="matrix(1.100716, 0, 0, -1.107726, 0, 344.790924)" gradientUnits="userSpaceOnUse">
      <stop offset="0" stop-color="#6155a4"/>
      <stop offset="0" stop-color="#7056a4"/>
      <stop offset="0" stop-color="#7b58a5"/>
      <stop offset="0" stop-color="#835aa5"/>
      <stop offset="0" stop-color="#875ba6"/>
      <stop offset="0" stop-color="#895ca6"/>
      <stop offset="0" stop-color="#8a5ca6"/>
      <stop offset="0.34" stop-color="#8a5ca6"/>
      <stop offset="0.39" stop-color="#895ca6"/>
      <stop offset="1" stop-color="#6155a4"/>
    </linearGradient>
  </defs>
  <path class="cls-1" d="M 40 20.128 C 40 23.218 39.306 26.154 38.074 28.768 C 37.524 29.93 36.862 31.038 36.104 32.058 C 33.142 31.714 29.39 31.482 26.01 31.87 C 26.01 31.87 25.284 29.422 25.328 28.536 C 25.24 26.984 25.042 25.422 24.734 23.894 C 24.568 23.174 24.216 21.39 24.16 20.924 C 24.116 20.482 23.754 17.48 23.434 16.65 C 23.126 15.84 22.994 14.622 21.288 13.858 C 21.288 13.858 20.078 10.634 18.348 10.124 L 18.844 12.994 C 18.844 12.994 18.834 13.37 18.348 12.672 C 17.854 11.964 16.202 10.202 15.432 10.456 C 15.432 10.456 16.214 13.414 16.576 13.98 C 16.576 13.98 15.642 14.346 15.432 15.042 C 15.222 15.74 13.208 15.93 12.406 16.472 C 11.602 17.004 10.952 19.152 13.538 19.518 C 13.736 19.906 14.122 20.16 14.552 20.172 C 15.036 20.216 15.498 20.294 15.972 20.416 C 16.016 21.866 15.884 23.306 15.564 24.714 C 15.068 26.342 15.344 29.72 15.432 30.606 C 15.532 31.504 15.354 35.614 16.61 37.684 C 16.61 37.684 16.598 38.626 16.796 40 C 7.264 38.472 0 30.152 0 20.128 C 0 9.006 8.96 0 20 0 C 31.04 0 40 9.016 40 20.128 Z" style=""/>
</svg>